HIERARCHY
ROOT Hips
{
	OFFSET 0.000000 0.000000 0.000000
	CHANNELS 6 Xposition Yposition Zposition Xrotation Yrotation Zrotation
	JOINT LeftUpLeg_virtual
	{
		OFFSET 0.000000 0.000000 0.000000
		CHANNELS 3 Xrotation Yrotation Zrotation
		JOINT LeftUpLeg
		{
			OFFSET 10.205400 -3.823500 0.155100
			CHANNELS 3 Xrotation Yrotation Zrotation
			JOINT LeftLeg
			{
				OFFSET 0.708757 -12.982077 0.567790
				CHANNELS 3 Xrotation Yrotation Zrotation
				JOINT LeftFoot
				{
					OFFSET -0.708756 -10.717838 -2.184338
					CHANNELS 3 Xrotation Yrotation Zrotation
					JOINT LeftToeBase
					{
						OFFSET 0.108149 -7.191104 7.560241
						CHANNELS 3 Xrotation Yrotation Zrotation
						JOINT LeftToe_End
						{
							OFFSET 0.070230 0.081724 4.490308
							CHANNELS 3 Xrotation Yrotation Zrotation
							End Site
							{
								OFFSET 0 0 0
							}
						}
					}
				}
			}
		}
	}
	JOINT RightUpLeg_virtual
	{
		OFFSET 0.000000 0.000000 0.000000
		CHANNELS 3 Xrotation Yrotation Zrotation
		JOINT RightUpLeg
		{
			OFFSET -10.205400 -3.823500 0.005500
			CHANNELS 3 Xrotation Yrotation Zrotation
			JOINT RightLeg
			{
				OFFSET -0.708756 -12.982134 0.610632
				CHANNELS 3 Xrotation Yrotation Zrotation
				JOINT RightFoot
				{
					OFFSET 0.708754 -10.717769 -1.945823
					CHANNELS 3 Xrotation Yrotation Zrotation
					JOINT RightToeBase
					{
						OFFSET -0.108140 -7.191069 7.372968
						CHANNELS 3 Xrotation Yrotation Zrotation
						JOINT RightToe_End
						{
							OFFSET -0.070227 0.081735 4.479403
							CHANNELS 3 Xrotation Yrotation Zrotation
							End Site
							{
								OFFSET 0 0 0
							}
						}
					}
				}
			}
		}
	}
	JOINT Spine_virtual
	{
		OFFSET 0.000000 0.000000 0.000000
		CHANNELS 3 Xrotation Yrotation Zrotation
		JOINT Spine
		{
			OFFSET 0.000000 6.876099 0.125700
			CHANNELS 3 Xrotation Yrotation Zrotation
			JOINT Spine1
			{
				OFFSET 0.000000 5.730043 0.104720
				CHANNELS 3 Xrotation Yrotation Zrotation
				JOINT Spine1_split
				{
					OFFSET 0.000000 5.730043 0.104720
					CHANNELS 3 Xrotation Yrotation Zrotation
					JOINT Spine2
					{
						OFFSET 0.000000 5.730043 0.104720
						CHANNELS 3 Xrotation Yrotation Zrotation
						JOINT Neck_virtual
						{
							OFFSET 0.000000 0.000000 0.000000
							CHANNELS 3 Xrotation Yrotation Zrotation
							JOINT Neck
							{
								OFFSET 0.000000 10.314075 0.188496
								CHANNELS 3 Xrotation Yrotation Zrotation
								JOINT Head
								{
									OFFSET 0.000000 7.643700 -2.377400
									CHANNELS 3 Xrotation Yrotation Zrotation
									JOINT HeadTop_End
									{
										OFFSET 0.000000 43.788605 -13.619600
										CHANNELS 3 Xrotation Yrotation Zrotation
										End Site
										{
											OFFSET 0 0 0
										}
									}
								}
							}
						}
						JOINT LeftShoulder_virtual
						{
							OFFSET 0.000000 0.000000 0.000000
							CHANNELS 3 Xrotation Yrotation Zrotation
							JOINT LeftShoulder
							{
								OFFSET 2.196100 4.412489 0.087492
								CHANNELS 3 Xrotation Yrotation Zrotation
								JOINT LeftShoulder_split
								{
									OFFSET 2.196100 4.412489 0.087492
									CHANNELS 3 Xrotation Yrotation Zrotation
									JOINT LeftArm
									{
										OFFSET 8.771219 -2.981674 -0.026999
										CHANNELS 3 Xrotation Yrotation Zrotation
										JOINT LeftForeArm
										{
											OFFSET 8.512804 0.000000 -0.000000
											CHANNELS 3 Xrotation Yrotation Zrotation
											JOINT LeftHand
											{
												OFFSET 18.484802 0.000000 -0.000000
												CHANNELS 3 Xrotation Yrotation Zrotation
												End Site
												{
													OFFSET 0 0 0
												}
											}
										}
									}
								}
							}
						}
						JOINT RightShoulder_virtual
						{
							OFFSET 0.000000 0.000000 0.000000
							CHANNELS 3 Xrotation Yrotation Zrotation
							JOINT RightShoulder
							{
								OFFSET -2.196100 4.412496 0.070690
								CHANNELS 3 Xrotation Yrotation Zrotation
								JOINT RightShoulder_split
								{
									OFFSET -2.196100 4.412496 0.070690
									CHANNELS 3 Xrotation Yrotation Zrotation
									JOINT RightArm
									{
										OFFSET -8.771282 -2.981682 -0.094208
										CHANNELS 3 Xrotation Yrotation Zrotation
										JOINT RightForeArm
										{
											OFFSET -8.494598 0.000000 0.000000
											CHANNELS 3 Xrotation Yrotation Zrotation
											JOINT RightHand
											{
												OFFSET -18.483803 0.000000 0.000001
												CHANNELS 3 Xrotation Yrotation Zrotation
												End Site
												{
													OFFSET 0 0 0
												}
											}
										}
									}
								}
							}
						}
					}
				}
			}
		}
	}
}
MOTION
Frames: 5
Frame Time: 0.03333333
-1.875791 16.217419 -0.511278 0.000000 0.000000 0.000000 -176.471802 39.321556 170.953297 -86.706499 -25.089527 21.210702 120.866508 -12.828414 3.872214 -28.310970 26.692856 -21.861176 2.225329 -6.198088 3.849995 0.000000 0.000000 0.000000 -175.992351 41.996494 169.116877 -47.811676 21.645165 -15.773808 107.073385 6.018146 -3.326039 -33.143496 -29.287687 42.576749 -0.360617 5.929775 -29.130542 0.000000 0.000000 0.000000 -178.585814 39.975086 173.887641 7.827275 1.276389 -5.500236 6.260647 0.330218 -3.469226 0.096399 0.156014 -0.003771 0.000000 0.000000 0.000000 9.398291 3.593328 -2.732818 -11.302316 12.487158 12.879870 -13.471451 28.448802 -18.351414 0.000000 0.000000 0.000000 6.296469 2.271059 -3.985822 1.367870 -12.754686 -7.172748 -1.610940 -4.567785 -3.359418 -8.410942 -10.444550 -29.813291 58.363024 -36.585744 18.259358 0.000000 0.000000 0.000000 8.329622 2.007903 -2.809120 -4.876116 -8.110422 15.139376 -25.165103 -11.311664 5.347367 25.749567 3.958761 42.751879 19.528687 67.611756 12.083182 0.000000 0.000000 0.000000 
-1.877977 16.213184 -0.508053 0.000000 0.000000 0.000000 -176.492648 39.310986 170.942477 -86.755321 -25.088927 21.234892 120.865976 -12.843807 3.859264 -28.307051 26.664830 -21.864484 2.264065 -6.189830 3.864214 0.000000 0.000000 0.000000 -176.015833 41.979818 169.107110 -47.809296 21.619931 -15.802650 107.065551 6.021190 -3.329099 -33.148021 -29.297642 42.569858 -0.348099 5.908882 -29.129862 0.000000 0.000000 0.000000 -178.608586 39.962737 173.874377 7.811881 1.288599 -5.515957 6.272171 0.330807 -3.478143 0.097367 0.156269 -0.003437 0.000000 0.000000 0.000000 9.396731 3.593459 -2.740243 -11.370561 12.504207 12.916103 -13.484969 28.240590 -18.351053 0.000000 0.000000 0.000000 6.301839 2.268897 -3.992560 1.351719 -12.783864 -7.197090 -1.572631 -4.550656 -3.345012 -8.472324 -10.439872 -29.751409 58.406717 -36.656659 18.278896 0.000000 0.000000 0.000000 8.331887 2.007870 -2.820390 -4.900198 -8.123880 15.100592 -25.148512 -11.334786 5.330304 25.746951 4.054973 42.756714 19.491741 67.495629 12.159855 0.000000 0.000000 0.000000 
-1.878804 16.208473 -0.504948 0.000000 0.000000 0.000000 -176.508726 39.297555 170.927888 -86.798420 -25.090287 21.257142 120.868038 -12.856698 3.842264 -28.304032 26.640272 -21.863379 2.289316 -6.182135 3.874238 0.000000 0.000000 0.000000 -176.032498 41.963057 169.088682 -47.796253 21.599228 -15.830490 107.053216 6.025277 -3.332387 -33.143544 -29.305261 42.572354 -0.340021 5.892695 -29.129592 0.000000 0.000000 0.000000 -178.624828 39.946129 173.855826 7.787845 1.299593 -5.535952 6.288012 0.330602 -3.485911 0.097369 0.156537 -0.003528 0.000000 0.000000 0.000000 9.403607 3.592394 -2.746607 -11.425928 12.523678 12.948175 -13.490065 28.047818 -18.336092 0.000000 0.000000 0.000000 6.312778 2.265838 -3.999217 1.336896 -12.827981 -7.223637 -1.540678 -4.519345 -3.332185 -8.536914 -10.418496 -29.665629 58.439194 -36.741985 18.302375 0.000000 0.000000 0.000000 8.340262 2.006771 -2.830271 -4.924496 -8.155809 15.060396 -25.134034 -11.364632 5.315158 25.730395 4.159371 42.767790 19.463247 67.368123 12.223149 0.000000 0.000000 0.000000 
-1.878354 16.203247 -0.501925 0.000000 0.000000 0.000000 -176.520638 39.280404 170.909638 -86.846607 -25.101536 21.273912 120.879322 -12.865468 3.823854 -28.292457 26.617085 -21.858569 2.296613 -6.174739 3.877119 0.000000 0.000000 0.000000 -176.043235 41.946739 169.063001 -47.770118 21.583748 -15.854341 107.039146 6.027843 -3.335314 -33.135590 -29.313085 42.582278 -0.334876 5.883399 -29.129971 0.000000 0.000000 0.000000 -178.635087 39.924887 173.834079 7.755938 1.310573 -5.557844 6.308235 0.329751 -3.491526 0.096254 0.157776 -0.004480 0.000000 0.000000 0.000000 9.418441 3.591018 -2.750593 -11.468361 12.543500 12.977684 -13.484464 27.877733 -18.304369 0.000000 0.000000 0.000000 6.329760 2.262612 -4.004478 1.324351 -12.890529 -7.248463 -1.514220 -4.479445 -3.322593 -8.597214 -10.372409 -29.558282 58.463113 -36.855523 18.338329 0.000000 0.000000 0.000000 8.355352 2.005165 -2.837581 -4.946621 -8.202572 15.018404 -25.122694 -11.395108 5.302072 25.707288 4.264883 42.792966 19.445815 67.220680 12.269943 0.000000 0.000000 0.000000 
-1.876792 16.196939 -0.500038 0.000000 0.000000 0.000000 -176.527974 39.259169 170.886770 -86.909103 -25.128751 21.281326 120.902394 -12.871679 3.806013 -28.258550 26.592928 -21.860225 2.293872 -6.166920 3.871814 0.000000 0.000000 0.000000 -176.049547 41.929797 169.032483 -47.724359 21.574052 -15.874702 107.031291 6.026204 -3.335979 -33.138445 -29.325076 42.587022 -0.323862 5.880222 -29.129012 0.000000 0.000000 0.000000 -178.640989 39.898284 173.813151 7.718956 1.323452 -5.578319 6.334109 0.328960 -3.493399 0.094566 0.159764 -0.005694 0.000000 0.000000 0.000000 9.440395 3.589976 -2.751445 -11.500490 12.561304 13.006308 -13.466123 27.738110 -18.256653 0.000000 0.000000 0.000000 6.353506 2.259800 -4.006708 1.315081 -12.971238 -7.270159 -1.495735 -4.448606 -3.317440 -8.646379 -10.299464 -29.434885 58.489526 -37.011009 18.400253 0.000000 0.000000 0.000000 8.377618 2.004007 -2.840863 -4.964054 -8.261407 14.970911 -25.104678 -11.414517 5.291530 25.679093 4.365559 42.840254 19.442688 67.059077 12.293902 0.000000 0.000000 0.000000 
